<svg width="11" height="13" viewBox="0 0 11 13" fill="none" xmlns="http://www.w3.org/2000/svg">
<path d="M8.83333 1.16667H7.5C7.13181 1.16667 6.83333 1.46515 6.83333 1.83334V11.1667C6.83333 11.5349 7.13181 11.8333 7.5 11.8333H8.83333C9.20152 11.8333 9.5 11.5349 9.5 11.1667V1.83334C9.5 1.46515 9.20152 1.16667 8.83333 1.16667Z" stroke="#09090B" stroke-width="1.3333" stroke-linecap="round" stroke-linejoin="round"/>
<path d="M3.5 1.16667H2.16667C1.79848 1.16667 1.5 1.46515 1.5 1.83334V11.1667C1.5 11.5349 1.79848 11.8333 2.16667 11.8333H3.5C3.86819 11.8333 4.16667 11.5349 4.16667 11.1667V1.83334C4.16667 1.46515 3.86819 1.16667 3.5 1.16667Z" stroke="#09090B" stroke-width="1.3333" stroke-linecap="round" stroke-linejoin="round"/>
</svg>
