<svg width="13" height="13" viewBox="0 0 13 13" fill="none" xmlns="http://www.w3.org/2000/svg">
<path d="M4.50008 7.83334L1.16675 4.5M1.16675 4.5L4.50008 1.16667M1.16675 4.5H8.16675C8.64826 4.5 9.12506 4.59485 9.56992 4.77911C10.0148 4.96338 10.419 5.23346 10.7595 5.57395C11.1 5.91443 11.37 6.31864 11.5543 6.7635C11.7386 7.20836 11.8334 7.68516 11.8334 8.16667C11.8334 8.64818 11.7386 9.12498 11.5543 9.56984C11.37 10.0147 11.1 10.4189 10.7595 10.7594C10.419 11.0999 10.0148 11.37 9.56992 11.5542C9.12506 11.7385 8.64826 11.8333 8.16675 11.8333H5.83341" stroke="#000000" stroke-width="1.3333" stroke-linecap="round" stroke-linejoin="round"/>
</svg>
