<svg width="15" height="15" viewBox="0 0 15 15" fill="none" xmlns="http://www.w3.org/2000/svg">
<path d="M7.49996 9.99999L5.49996 7.99999M7.49996 9.99999C8.43119 9.64582 9.32455 9.19914 10.1666 8.66666M7.49996 9.99999V13.3333C7.49996 13.3333 9.51996 12.9667 10.1666 12C10.8866 10.92 10.1666 8.66666 10.1666 8.66666M5.49996 7.99999C5.85472 7.07961 6.30143 6.19737 6.83329 5.36666C7.61008 4.12465 8.69171 3.10203 9.97529 2.39605C11.2589 1.69008 12.7017 1.32424 14.1666 1.33333C14.1666 3.14666 13.6466 6.33333 10.1666 8.66666M5.49996 7.99999L2.16663 8C2.16663 8 2.53329 5.98 3.49996 5.33334C4.57996 4.61334 6.83329 5.33334 6.83329 5.33334M2.49996 11C1.49996 11.84 1.16663 14.3334 1.16663 14.3334C1.16663 14.3334 3.65996 14 4.49996 13C4.97329 12.44 4.96663 11.58 4.43996 11.06C4.18083 10.8127 3.83949 10.6698 3.48144 10.6587C3.1234 10.6477 2.77388 10.7692 2.49996 11Z" stroke="#09090B" stroke-width="1.333" stroke-linecap="round" stroke-linejoin="round"/>
</svg>
